<mxfile host="app.diagrams.net" modified="2023-09-04T04:10:04.148Z" agent="Mozilla/5.0 (Windows NT 10.0; Win64; x64) AppleWebKit/537.36 (KHTML, like Gecko) Chrome/116.0.0.0 Safari/537.36 Edg/116.0.1938.62" etag="nbG-r9MjiMyTR3STdhv1" version="21.3.3" type="github">
  <diagram name="第 1 页" id="HT7wGHGOkLV5Xu1jyyUx">
    <mxGraphModel dx="2253" dy="1928" grid="1" gridSize="10" guides="1" tooltips="1" connect="1" arrows="1" fold="1" page="1" pageScale="1" pageWidth="827" pageHeight="1169" math="0" shadow="0">
      <root>
        <mxCell id="0" />
        <mxCell id="1" parent="0" />
        <mxCell id="2" value="lvgl" style="rounded=1;absoluteArcSize=1;arcSize=14;whiteSpace=wrap;strokeWidth=2;" parent="1" vertex="1">
          <mxGeometry y="252" width="41" height="34" as="geometry" />
        </mxCell>
        <mxCell id="3" value="第一层级" style="rounded=1;absoluteArcSize=1;arcSize=14;whiteSpace=wrap;strokeWidth=2;" parent="1" vertex="1">
          <mxGeometry x="91" y="42" width="81" height="34" as="geometry" />
        </mxCell>
        <mxCell id="4" value="第二层级" style="rounded=1;absoluteArcSize=1;arcSize=14;whiteSpace=wrap;strokeWidth=2;" parent="1" vertex="1">
          <mxGeometry x="91" y="252" width="81" height="34" as="geometry" />
        </mxCell>
        <mxCell id="5" value="第三层级" style="rounded=1;absoluteArcSize=1;arcSize=14;whiteSpace=wrap;strokeWidth=2;" parent="1" vertex="1">
          <mxGeometry x="91" y="420" width="81" height="34" as="geometry" />
        </mxCell>
        <mxCell id="6" value="组件1" style="rounded=1;absoluteArcSize=1;arcSize=14;whiteSpace=wrap;strokeWidth=2;" parent="1" vertex="1">
          <mxGeometry x="222" width="55" height="34" as="geometry" />
        </mxCell>
        <mxCell id="7" value="组件2" style="rounded=1;absoluteArcSize=1;arcSize=14;whiteSpace=wrap;strokeWidth=2;" parent="1" vertex="1">
          <mxGeometry x="222" y="84" width="55" height="34" as="geometry" />
        </mxCell>
        <mxCell id="8" value="组件3" style="rounded=1;absoluteArcSize=1;arcSize=14;whiteSpace=wrap;strokeWidth=2;" parent="1" vertex="1">
          <mxGeometry x="222" y="168" width="55" height="34" as="geometry" />
        </mxCell>
        <mxCell id="9" value="组件4" style="rounded=1;absoluteArcSize=1;arcSize=14;whiteSpace=wrap;strokeWidth=2;" parent="1" vertex="1">
          <mxGeometry x="222" y="252" width="56" height="34" as="geometry" />
        </mxCell>
        <mxCell id="10" value="组件5" style="rounded=1;absoluteArcSize=1;arcSize=14;whiteSpace=wrap;strokeWidth=2;" parent="1" vertex="1">
          <mxGeometry x="222" y="336" width="55" height="34" as="geometry" />
        </mxCell>
        <mxCell id="11" value="组件6" style="rounded=1;absoluteArcSize=1;arcSize=14;whiteSpace=wrap;strokeWidth=2;" parent="1" vertex="1">
          <mxGeometry x="222" y="420" width="56" height="34" as="geometry" />
        </mxCell>
        <mxCell id="12" value="" style="curved=1;startArrow=none;endArrow=block;exitX=0.5843790831881532;exitY=0;entryX=-0.005111882716049383;entryY=0.5;" parent="1" source="2" target="3" edge="1">
          <mxGeometry relative="1" as="geometry">
            <Array as="points">
              <mxPoint x="66" y="59" />
            </Array>
          </mxGeometry>
        </mxCell>
        <mxCell id="13" value="" style="curved=1;startArrow=none;endArrow=block;exitX=0.9899009146341463;exitY=0.5;entryX=-0.005111882716049383;entryY=0.5;" parent="1" source="2" target="4" edge="1">
          <mxGeometry relative="1" as="geometry">
            <Array as="points" />
          </mxGeometry>
        </mxCell>
        <mxCell id="14" value="" style="curved=1;startArrow=none;endArrow=block;exitX=0.6067362396559234;exitY=1;entryX=-0.005111882716049383;entryY=0.5;" parent="1" source="2" target="5" edge="1">
          <mxGeometry relative="1" as="geometry">
            <Array as="points">
              <mxPoint x="66" y="437" />
            </Array>
          </mxGeometry>
        </mxCell>
        <mxCell id="15" value="" style="curved=1;startArrow=none;endArrow=block;exitX=0.8221955834803056;exitY=0;entryX=-0.0019886363636363634;entryY=0.5;" parent="1" source="3" target="6" edge="1">
          <mxGeometry relative="1" as="geometry">
            <Array as="points">
              <mxPoint x="197" y="17" />
            </Array>
          </mxGeometry>
        </mxCell>
        <mxCell id="16" value="" style="curved=1;startArrow=none;endArrow=block;exitX=0.8221955834803056;exitY=1;entryX=-0.0019886363636363634;entryY=0.5;" parent="1" source="3" target="7" edge="1">
          <mxGeometry relative="1" as="geometry">
            <Array as="points">
              <mxPoint x="197" y="101" />
            </Array>
          </mxGeometry>
        </mxCell>
        <mxCell id="17" value="" style="curved=1;startArrow=none;endArrow=block;exitX=0.6585418503821281;exitY=0;entryX=-0.0019886363636363634;entryY=0.5;" parent="1" source="4" target="8" edge="1">
          <mxGeometry relative="1" as="geometry">
            <Array as="points">
              <mxPoint x="197" y="185" />
            </Array>
          </mxGeometry>
        </mxCell>
        <mxCell id="18" value="" style="curved=1;startArrow=none;endArrow=block;exitX=0.9948881172839507;exitY=0.5;entryX=-0.007393973214285714;entryY=0.5;" parent="1" source="4" target="9" edge="1">
          <mxGeometry relative="1" as="geometry">
            <Array as="points" />
          </mxGeometry>
        </mxCell>
        <mxCell id="19" value="" style="curved=1;startArrow=none;endArrow=block;exitX=0.6585418503821281;exitY=1;entryX=-0.0019886363636363634;entryY=0.5;" parent="1" source="4" target="10" edge="1">
          <mxGeometry relative="1" as="geometry">
            <Array as="points">
              <mxPoint x="197" y="353" />
            </Array>
          </mxGeometry>
        </mxCell>
        <mxCell id="20" value="" style="curved=1;startArrow=none;endArrow=block;exitX=0.9948881172839507;exitY=0.5;entryX=-0.007393973214285714;entryY=0.5;" parent="1" source="5" target="11" edge="1">
          <mxGeometry relative="1" as="geometry">
            <Array as="points" />
          </mxGeometry>
        </mxCell>
      </root>
    </mxGraphModel>
  </diagram>
</mxfile>
